<?xml version="1.0" encoding="UTF-8"?>
<svg id="Layer_1" xmlns="http://www.w3.org/2000/svg" version="1.1" viewBox="0 0 642 620">
  <!-- Generator: Adobe Illustrator 29.8.3, SVG Export Plug-In . SVG Version: 2.1.1 Build 3)  -->
  <defs>
    <style>
      .st0 {
        fill: #fff;
      }
    </style>
  </defs>
  <rect class="st0" width="642" height="620" fill-opacity="0"/>
  <g fill="#05878a">
  <path d="M504.5,245c10.82.99,26.11,5.33,34.03,12.97,3.46,3.34,14.43,19.18,14.15,23.39-.46,6.97-7.43,11.66-14.08,11.53-9.02-.17-34.82-10.21-41.01-17-5.06-5.55-7.46-20.51-15.09-21.92-2.14-.39-1.26.39-1.49,1.53-.73,3.64-1.8,27.27-.86,28.34,5.55.29,13.64,9,17.6,9.96,2.67.65,6.66-1.58,9.75-1.81,14.22-1.07,33.32,4.05,42.49,15.49,1.7,2.12,2.27,5.32,4.05,6.95,3.4,3.13,7.79,3.77,11.93,9.07,5.22,6.69,4.83,16.5,14.76,18.24,6.43,1.13,14.27-2.16,13.22,8.61-1.14,11.66-16.86,20.56-27.46,21.61-33.78,3.36-79.75-23.77-77.52-61.52.12-2.03,1.99-4.57,1.57-5.49-.74-1.64-9.12-8.45-10.53-6.98.35,13.12.29,26.43.95,39.54.24,4.81,1.82,9.95,2.09,14.91.52,9.46-.67,17.44-3.02,26.49,37.92,7.06,77.58,11.56,114.79,21.73,14.75,4.03,27.75,7.01,31.08,23.92,3.18,16.2.65,67.67-6.53,82.27-7.08,14.4-27.96,19.53-42.41,24.59-36.17,12.68-75.61,23.4-112.75,33.25-51.23,13.59-110.74,32.72-163.4,23.97-58.23-9.68-123.25-27.84-179.81-45.19-17.26-5.3-57.59-16.25-70.48-26.52-14.59-11.62-15.77-39.79-16.56-57.44-1.05-23.33-4.08-46.79,21.51-55.58,39.73-13.65,86.53-17.54,127.85-25.15l1.66-1.32c-5.86-7.06-11.73-6.1-19.89-7.59-.47-7.95,4.6-8.73,11.32-7.81,10.67,1.46,16.71,14.39,18.17,14.73.63.15,11.3-1.84,11.47-2.4-1.31-21.87-6.04-42.92-16.07-62.42-1.7-.26-1.08,2.39-.98,3.47.78,9.07.58,14.21-4.76,22.27-7.74,11.66-33.99,21.85-47.76,20.27-11.13-1.28-2.48-8.63-2.63-10.33-.35-3.92-4.11-4.63-2.41-12.75,3.41-16.22,18.34-25.51,32.79-30.2,3.72-1.21,11.55-1.92,14.17-3.68.88-.59.91-1.66.58-2.04-.27-.32-6.92-3.89-7.33-3.85-1.07.09-12.75,8.55-15.98,10.02-15.12,6.86-36.76,9.31-48.12-5.25-1.13-1.45-2.23-5.32-2.79-5.72-.73-.51-5.31-1.02-7.47-2.03-32.12-15.1-21.5-60.51,17.05-55.04,3.74.53,8.86,2.92,12.17,2.89,2.8-.03,5.21-2.21,8.03-2.97,6.97-1.89,13.53-.4,19.79,3.1,5.56,3.11,9.08,9.49,14.65,11.84-.86-13.78,10.49-23.88,20.44-9.93,1.52,2.13,2.68,6.55,4.09,7.91,2.55,2.46,8.71.73,6.01,5.06-1.38,2.23-5.56,2.31-7.53.96,3.34,10.42,2.18,20.1-1.08,30.34,29.63,18.47,35.43,53.32,38.08,85.64,2.97-.2,17.25-.29,17.91-2.61-.63-11.94-2.21-23.97-2.92-35.89-2.28-38.47,1.32-85.2-29.51-113.45-10.55,14.96-49.55,12.33-55.73-4.32-.94-2.52-.33-5.35-1.7-7.3-1.25-1.78-9.19-5.92-11.57-8.43-5.86-6.22-10.05-18.01-2.53-24.49-17.14-8.65-59.29-.27-55.89,24.91,2.57,18.99,29.53,11.51,21.96-1.97-3.53-6.28-9.71-1.98-10.04-2.45-1.83-2.65,3.42-4.66,5.57-4.96,16.25-2.24,16.76,24.8-.32,27.72-23.06,3.94-32.51-21.48-19.24-38.24,10.64-13.44,31.28-16.93,47.51-15.56,6.62.56,11.98,4.7,18.46,2.02-4.27-3.53-9.73-4.77-14.33-8.16-20.58-15.16-14.38-49.86,11.69-47.74,21.3,1.73,22,32.21,4.15,30.98-4.66-.32-10.43-5.85-5.53-9.06,1.63,10.16,13.98,2.51,11.57-6.03-3.64-12.86-24.53-10.4-26.48,5.63-3.43,28.2,43.77,27.38,60.97,30.85,23.49,4.74,40.61,17.47,50.81,39.19l7.13,16.35,6.04-39.44c-.32-2.45-13.16-12.44-16-16.08-13.62-17.44-12.58-40.05-1.19-58.14s30.87-20.75,43.02-2.65c.84,1.25.78,3.3,1.41,4.07s3.02,1.04,4.27,2.22c5.79,5.46,6.35,13.48,6.48,21.03,29.3-11.32,55.61,8.3,34.4,37.91-13.53,18.89-39.95,27.73-61.4,17.09-5.83,15.88-6.18,33.22-6.01,50,8.07-9.67,9.56-26.07,23.98-29.51,9.23-2.2,16.9,4.55,16.06,14-.96,10.83-18.29,10.02-18.02,4,.11-2.42,5.2-.41,6.99-.89,5.62-1.51,6.32-10.25-.51-10.7-10.82-.71-16.11,19.53-19.96,27.13-2.21,4.36-6.2,7.52-7.59,12.41-1.49,5.25-.88,10.15-.95,15.54,2.78.71,1.83-1.81,3.56-2.91,1.26-.8,3.32-.65,4.18-1.34.78-.63,2.55-5.9,3.82-7.68,1.66-2.33,7.11-7.71,9.42-9.58,10.62-8.55,38.93-16.02,50.5-7.48,7.04,5.19,6.9,15.31,7.58,15.92.39.35,2.95-.1,4.18.3,13.55,4.39,18.89,19.57,18.77,32.77,6.63-8.51,12.47-26.99,26.01-16.52,8.97,6.93,5,11.62,7.44,20.56.73,2.7,4.02,6.5,5.39,9.61,1.59,3.63,1.53,8.08,4.14,10.35,2.36-13.15,5.65-26.2,6.97-39.55.58-5.9,1.82-29.47-4.61-31.34-1.07-.31-8,1.78-10.8,1.93-16.88.87-33.34-9.92-42.96-23.12-23.18-31.82,5.62-43.14,32.43-29.43l10.98,7.51c-7.35-13.43-1.15-46.36,17.53-46.02s18.37,38.35,17.51,50.57-6.51,21.4-7.98,31.02c-1.21,7.95.28,19.45-.02,27.98-.21,5.86-1.37,13.02-2.06,18.94-.11.89,1.91.6,2,.51.41-.39,4.1-7.88,5.6-9.91,6.91-9.32,14.99-17.79,24.48-24.52,3.71-2.63,15.15-7.12,15.92-11.08.99-5.11.54-12.16,1.6-17.52-14.83-2.43-28.82-12.4-32.63-27.41-1.46-5.75-2.17-26.3,1.16-30.93,5.69-7.9,22.32,0,27.87,5.38.26-4.9,4.81-6.38,7.51-9,1.23-1.2,1.79-2.99,3-4,5.31-4.41,10.65-6.5,17.49-4,1.68-12.16-3.38-32.41-19.29-28.78-8.54,1.95-8.93,14.83-.04,15.56,1.98.16,5.88-4.41,6.33-1.26.99,6.87-16.27,9.03-18.77-3.25-4.32-21.2,27.97-26.35,36.25-4.25,2.4,6.41,2.01,11.07,2.52,17.5.12,1.49-.78,2.87,1.49,2.49,6.95-17.15,23.94-34.12,43.91-25.91,21.13,8.69,10.24,39.73-8.95,32.94-6.23-2.2-9.36-12.27-4.94-14.03,4.04-1.61.96,2.46,2.58,5.34,5.72,10.12,23.48-3.21,11.91-14.85-9.35-9.4-23.53-1.92-30.51,6.49-2.25,2.71-10,16.86-9.43,19.44.31,1.45,4.54,1.54,6.51,3.5,10.93,10.84-6.37,41.78-16.63,49.5-3.7,2.78-13.92,6.54-15.97,9.03-2.77,3.36-1.85,11.17-2.96,15.53l11.75-5.24c8.71-23.6,37.93-35.59,61.73-33.73,21.17,1.65,33.73,22.23,13.85,35.82-3.49,2.38-9.69,3.32-11.31,4.69-1.41,1.18-1.57,4.39-4.52,6.48-11.38,8.06-32.54,5.22-45.03,1.02-8.44-2.84-7.03-6.36-16.39-.44-1.81,1.14-4.19,2.37-5.08,4.42,5.68.37,11.9-.51,17.5,0Z"/>
  <path d="M361.02,42.99c2.56-.01,3.78-2.75,6.29-4.19,24.01-13.77,40.58,10.22,26.53,32.53-4.65,7.38-31.2,29.66-39.36,29.27-8.81-.42-29.47-30.73-31.98-39.61-8.64-30.49,23.8-44.19,38.52-18.01Z"/>
  <path d="M152.99,371.98c-1.77,2.6-18.75,2.25-16.99-4.98,2.84-.46,20.88-.75,16.99,4.98Z"/>
  <path d="M384.23,128.78c-2.72-4.55,3.12-12.69,7.84-9.35,3.91,2.76-4.21,15.41-7.84,9.35Z"/>
  <path d="M450,227.99c-.81,1.14-6.1,1.51-4.99-2.48.99-3.56,6.97-.32,4.99,2.48Z"/>
  <path d="M204.98,126.98c-3.94,3.04-7.93-5.88-.49-3.97,1.86.48.83,3.71.49,3.97Z"/>
  <path class="st0" d="M327,510v62c-10.11.35-20.11-1.7-30.02-3.48-64.93-11.62-143.54-33.21-205.75-55.25-9.27-3.29-27.25-8.27-31.74-17.26-4.24-8.51-6.67-45.57-5.49-55.53.16-1.35-.52-1.82,1.38-1.38,43.43,14.54,87.19,28.55,131.41,40.61,45.86,12.51,92.98,24.57,140.22,30.28Z"/>
  <path class="st0" d="M337,572v-62c91.98-14.33,181.32-42.24,269.52-70.98.71,11.75.69,24.75-.52,36.48-.73,7.07-1.69,19.23-6.59,24.41-6.58,6.97-40.09,16.64-50.88,20.12-36.24,11.67-74.38,22.3-111.3,31.7-32.8,8.35-66.52,17.09-100.22,20.28Z"/>
  <path class="st0" d="M605.97,428.96c-56.64,17.82-113.31,36.03-170.96,50.55-24.39,6.14-51.13,13-75.83,17.17-28.51,4.82-43.6,2.43-71.37-2.99-78.89-15.4-156.58-40.54-232.85-65.25.44-9.12,9.91-10.95,17.42-11.4,60.46,19.71,121.57,38.16,183.61,52.47,36.02,8.31,63.82,16.48,101.2,10.17,78.79-13.29,156.86-40.73,233.56-62.44,7.22.18,15,3.63,15.23,11.71Z"/>
  <path class="st0" d="M258,415.01c1.38,1.87-7.54,5.52-7.99,8.49-.16.77.92.61,1.47.48,17.43-4.34,34.92-21.87,54.87-10.82,1.64.91,2.76,3.15,4.36,3.64,3.69,1.13,6.62-.79,9.71-.71,7.51.2,16.33,6.45,22.06,10.94,4.62,3.62,14.31,14.12,19.05,15.96,1.23.48,1.95-.24,1.47-1.47-.78-2.01-8.34-8.66-6.99-10.5,11.11-3.68,21.72-4.71,32.31,1.18,4.39,2.45,7.5,7.31,10.98,9.02,6.77,3.33,15.25,3,19.72,11.77-21.46,3.71-42.52,9.81-63.98,13.53-21.32,3.7-31.97,2.99-53.21-.84-19.03-3.44-37.9-8.69-56.81-12.7,2.56-4.56,7.41-6.54,11-9.98-12.48-1.39-21.46,9.55-34,4.98l3.48-5,7.51-6.98c-7.34-1.62-13.54,6.93-18.06,8.49-5.97,2.06-30.21-7.68-37.93-8.51-.97-1.04,2.16-3.74,2.99-4.51,15.73-14.62,37.12-27.44,59.22-23.19,2.61.5,17.94,5.55,18.79,6.72Z"/>
  <path class="st0" d="M395.99,305c6.82,22.17.07,43.78-.98,66h-111c-1.84-1.8,8.22-14.07,9.24-16.26,2.17-4.68-.32-10.18,7.75-5.74,4.41-9.7-4.84-10.08-10.02-4.52-2.11,2.26-9.02,12.26-10.77,15.23-2.58,4.38-3.01,11.81-8.2,10.29.05-15.87-.03-31.94,6.02-46.99,12.2,5.97,24.75,4.65,36.29-2.2,13.23-7.86,27.1-32.09,27.73-47.35.19-4.58-2.12-8.88-2.02-13.45,15.21,4.5,18.7,24.1,14.03,37.54-4.38,12.59-16.9,18.23-24.45,27.55-5.4,6.67-7.55,18.61-15.29,21.71-6.09,2.44-13.86-.29-12.07,8.47,1.51,7.41,13.52,12.85,20.38,13.62,6.41.73,15.68-.6,21.67-3.12,3.69-1.55,7-5.57,8.75-6.3,1.33-.56,3.1.54,4.99.14,10.74-2.25,26.92-26.15,27.77-37.33l10.2-17.29Z"/>
  <path class="st0" d="M468.87,285.87c-14.98,4.31-27.93,10.95-32.39,27.11-1.09,3.97-3.6,19.5-2.82,22.81.69,2.93,4.13,6.9,4.23,8.64.41,7.78-8.2,20.86-7.9,29.57l-15-2.01c2.25-31.83,9.33-63.5,27.2-90.31,3.38-5.07,21.99-26.88,27.32-26.66,1.59.07,1.06,2.04,1.02,2.97-.4,9.29-.59,18.63-1.66,27.87Z"/>
  <path class="st0" d="M479,436.99l-48.39,12.81c-2.45-1.6-3.31-4.35-5.59-6.32-6.68-5.79-15.34-12.51-22.74-17.24-.77-.49-2.83-.74-1.29-2.23.49-.48,11.31-4.03,12.99-4.52,8.18-2.38,19.87-5.32,27.71-1.7,1.56.72,2.66,2.61,4.02,3.02,3,.9,5.18-.84,7.71-.75,8.61.31,19.53,11.27,25.57,16.93Z"/>
  <path class="st0" d="M92,259c.11-.16-1.45-1.95-.55-3.95,2.45-5.48,16.23-8.6,21.8-7.82,13.39,1.88,20.26,13.01,27.16,22.89.84,1.2.04,2.44,2.59,1.87.84-8.07-17.75-18.64-7.26-23.76,12.84-6.27,35.48,17.15,33.26,30.76-1.31,1.43-12.37-9.21-14.99-7.5.85.76,9.06,8.29,4.63,7.39-5.6-1.13-11.44-3.99-16.53-5.27-2.52-.64-5.46-.37-8.14-1.08-14.26-3.78-28.25-8.13-41.96-13.53.39,1.63,2.3,2.19,3.63,2.87,7.55,3.85,16.63,8.19,24.39,11.61,5.42,2.39,12.29,4.08,17.52,6.48.99.45,2.35.61,2.46,2.03-5.31.03-11.49,5.1-16.52,5.06-2.79-.02-5.38-2.29-8.22-2.81-5.34-.98-7.85.24-13.64-2.36-6.62-2.97-14.09-12.78-12.67-20.38.53-2.85,2.9-2.29,3.04-2.49Z"/>
  <path class="st0" d="M296.01,297.01c-.38,2.21.17,2,1.95,2.49,2.55.71,17.32,2.52,18.04,3.51-1.82,6.99-11.8,12.26-18.49,12.99-3.29.36-17.75.75-16.12-5.03.5-1.76,7.95-12.29,9.63-14.46,5.2-6.7,24.32-28.61,31.68-30.31,5.13-1.18,10.39-.37,9.1,6.04-.46,2.27-2.63,4.07-3.13,5.75-1.09,3.69-1.23,8.38-2.88,12.29-6.93,16.36-16.4,7.55-29.79,6.72Z"/>
  <path class="st0" d="M375.99,405l-1.99-5.99c5.1-1.58,7.53,2.33,10.95,3.55,1.53.54,4.86.28,5.04.45.43.41-.12,10.37-1.01,11-5.61-1.25-12.7-1.53-18.47-.99-5.2.48-15.22,5.04-18.04,4.91-1.95-.09-12.35-9.01-16.1-10.8-2.98-1.42-7.89-3.11-11.11-3.89-2.77-.67-6.98.96-8.26-2.22,6.96-2.55,13.01-8.58,21.07-6.6,1.93.47,4.09,2.56,5.44,2.57,1.63,0,3.2-2.31,5.2-2.78,11.61-2.73,19.37,3.72,27.29,10.8Z"/>
  <path class="st0" d="M198,207.99c-3.09.47-8.28-1.5-10,2,5.77.13,12.78-.88,17.76,2.71.72.52,2.54.72,1.24,2.28-.88,1.05-10.65,4.68-12.58,4.93-5.37.7-28.18-2.64-26.35-10.32.6-2.51,11.92-6.6,14.59-7.49,1.56-.52,2.86.88,2.34-2.1-16.56,5.42-30.43.3-36.99-16,2.46-2.15,17.99,4.66,21.35,6.14,10.12,4.44,20.36,10.78,28.64,17.85Z"/>
  <path class="st0" d="M189.89,392.12c.27.24,1.66,5.73,2.11,6.87-29.76,3.94-59.15,10.09-88.55,16.03l-16.44-4.04c-.24-1.4,1.77-1.46,2.77-1.7,19.37-4.66,41.32-8.59,61.04-11.97,4.79-.82,37.59-6.5,39.07-5.2Z"/>
  <path class="st0" d="M573.99,410.01l-13.73,4.74c-28.23-4.28-56.12-10.24-84.78-13.75-1.14-.14-2.02.38-1.46-1.48.15-.5,2.82-6.19,3.12-6.38,1.32-.84,26.97,3.5,31.04,4.17,22.03,3.63,43.85,8.73,65.81,12.7Z"/>
  <path class="st0" d="M257.99,166c-11.12-8.11-17.57-22.74-16.04-36.55,1.04-9.33,6.1,7.1,11.05,6.54-2.34-3.69-9.35-9.97-8.83-14.22.34-2.81,5.4-12.48,7.39-14.71,2.23-2.5,9.71-8.27,9.39-1.71-.55,11.26-3.79,23.91-4.03,35.15-.05,2.35,1.15,4.61,1.16,7.02.01,6.13-.37,12.33-.09,18.48Z"/>
  <path class="st0" d="M326,143.99c-12.77,5.23-23.98,15.33-38,17l2.5-5.98c-4.92,8.72-12.65,11.39-21.5,14.99,5.82-14.13,14.08-28.4,31-29.98l-1.5,4.99c4.11-7.79,11.81-8.8,19.73-6.72,1.57.41,9.5,3.34,7.77,5.71Z"/>
  <path class="st0" d="M263.99,404c-.51.58-6.57-2.32-6.84-3.58-.21-.99.96-2.65.84-3.91-3.52-35.28-2.33-71.51-5.01-106.99-.5-6.62-9.18-45.21-6.94-47.47.33-.33,4.46.13,5.72-1.29,1.65-1.86,1.13-9.1,1.24-11.75,1.74-.23.94,2.27.99,3.48.38,9.31-.13,18.73-.04,28.05.24,24.64.74,51.23,3.17,75.83.72,7.28,4.25,12.45,4.86,20.14,1.22,15.42-.11,31.97,2.01,47.48Z"/>
  <path class="st0" d="M268,131.99c2.37,2.16,10.51-12.54,12.53-12.98,3.96-.86,4.31,15.28,3.32,16.83-.24.38-2.75.83-3.79,1.68-7.04,5.75-8.88,8.93-13.81,16.17-.61.9.15,1.85-2.23,1.3-.33-5.71.45-11.82-.01-17.49-.88-10.75-4.3-21.46-1.77-32.79,2.16-9.65,14.52,5.42,14.74,11.88.16,4.64-6.21,11.83-8.96,15.39Z"/>
  <path class="st0" d="M558.7,331.28c2.52,3.01-.03,5.72.77,7.7,1.06,2.64,11.75,10.08,14.81,11.24,1.92.73,9.45.97,4.33,2.89-17.97,6.72-44.37-10.73-54.61-25.1,10.04,1.62,27.05-5.85,34.7,3.27Z"/>
  <path class="st0" d="M405,231.99c-22.63,5.23-41.58-14.09-50-32.98,19.68,4.17,37.75,17.26,50,32.98Z"/>
  <path class="st0" d="M326.99,145c-2.47,24.53-32.23,41.75-54.99,31.98l22.3-11.19c3.05-2.19,31.3-22.33,32.69-20.8Z"/>
  <path class="st0" d="M157,175.99c-1.6-1.4.54-1.77,1.28-2.25,7.82-4.97,30.73-.18,39.73,2.74,9.6,3.11,18.4,8.1,23.92,16.87-6.34,10.11-12.27.16-19.01-3.78s-20.56-8.81-28.26-10.74c-2.72-.68-16.99-2.26-17.66-2.85Z"/>
  <path class="st0" d="M522,312.01c-.07,1.8-.49,2.11,1.5,2.01,8.46-.4,17.43-8.73,21.41,6.32-.55,1.93-5.77,3.12-7.67,3.4-2.07.3-15.12,1.18-16.26.87-2.23-.62-12.1-12.06-12.97-14.12-1.61-3.8,8.49,1.57,8.99.02l-12-7.49c8.95-1.73,19.33-1.69,27.35,3.14s-9.23,4.94-10.36,5.86Z"/>
  <path class="st0" d="M569,213.01c-3.84,11.7-19.94,15.86-30.99,13l8.98,5.49c-11.04,6.81-25.93,4.39-37.98,1.49,1.58-2.11,5.55-3.48,8.02-4.47,6.07-2.44,49.64-17.67,51.98-15.51Z"/>
  <path class="st0" d="M566,208.99c-20.82,2.25-41.03,10.81-60.99,17,4.9-10.81,18.02-19.91,29.99-19.99l-1.5,4.99c6.45-6.93,13.57-9.18,23.03-8.02,2.88.35,9.55,2.37,9.47,6.02Z"/>
  <path class="st0" d="M163,288.01c1.54,1.5-.65,1.79-1.27,2.28-10.09,8-32.42,13.87-43.68,6.16-10.12-6.92,8.69-6.88,12.98-7.92,6.06-1.47,11.13-6.18,17.21-5.31,1.29.19,14.2,4.25,14.76,4.79Z"/>
  <path class="st0" d="M463.98,337.01c.69.59,8.31,14.69,8.57,15.94,2.47,11.71-3.3,32.84-8.38,43.73-.79,1.69-6.04,13.25-9.17,10.32-.56-.53,5.32-9.54,6.04-11.45,1.99-5.24,4.62-17.5,4.93-23.06.61-10.87-6.21-23.32-3.99-34.98-.12-.87,1.86-.6,1.99-.5Z"/>
  <path class="st0" d="M217,395c-1.37-33.7-4.01-76.44-31.99-99.52-2.8-2.31-6-4.03-9.02-6.01-.53-.35-3.81-.81-1.98-2.47.82-.74,11.64,5.87,13.32,7.17,24.39,18.94,31.65,59.2,33.66,88.34.12,1.77.85,10.49.76,11.04-.29,1.78-3.2,1.56-4.75,1.46Z"/>
  <path class="st0" d="M165.01,341c-1.23-1.37,2.64-7.95,0-8.99-1.31,12.7-10.7,15.74-22.01,16.5l37.99-37.5c2.99,12.86-4.24,24.99-15.98,30Z"/>
  <path class="st0" d="M481.99,198.99l-1.24-9.24c-.6-5.54-8.11-19.52-1.78-23.29,4.45-2.65,3.01,4.05,6.03,5.53-1.17-4.67-1.36-8.04,1.16-12.34,3.01-5.15,10.86-7.97,9.64.6-1.72,12.05-11.35,26.36-13.8,38.74Z"/>
  <path class="st0" d="M311,266.01l-29.5,30.98c-.85-4.07.65-8.67,1.2-12.81.1-.76,1.16-4.13-.7-2.7-5.61,5.88-3.98,14.42-7.11,20.89s-5.73,1.72-7.67-3.09c-2.47-6.1-2.59-18.86,3.76-22.82,3.52-2.19,1.47,3.61,4.02,4.53-2.22-5.1,4.54-16.41,9.1-10.58,1.79,2.28-.27,5.7,1.89,6.58,3.3-9.72,15.81-13.73,25.01-10.98Z"/>
  <path class="st0" d="M347,324.01c-2.38,2.41,3.96,2.34,4.99.99.09.8.02,1.51-.19,2.3-.54,2.04-9.62,16.67-11.41,18.59-6.44,6.94-16.03,10.54-25.39,11.1l9.65-5.34c3.42-3.19,5.2-10.21,8.84-12.66,4.67-3.14,10.04-.16,12.5-4.99-2.92-.08-5.51,1.12-8.47,1.03-1.15-.03-3.35.46-2.52-1.53,1.11-2.65,10.37-9.25,13.02-11.99,3.89-4,7.57-9.41,11.48-13.52.23,2.83-3.3,12.51-4.99,14.01-1.78,1.58-6.66,1.14-7.51,2Z"/>
  <path class="st0" d="M365.01,310c10.7,11.99,8.15,24.06-2.16,35.35-1.96,2.15-7.64,7.65-7.41,1.66.62-16.88,2.98-16.68,8.34-30.74.78-2.04,1.36-4.06,1.24-6.28Z"/>
  <path class="st0" d="M325.99,384.01c.56,2.89-.84,1.59-2.19,2.25-11.7,5.69-18.86,3.38-31.34,3.7-3.89.1-15.71,2.56-18.52.6-1.67-1.16-.75-5.55-.94-7.57l53,1.01Z"/>
  <path class="st0" d="M511,164c1.34,1.32-1.49,10.11-3.31,11.69-.85.74-2.9.37-3.68,1.81,9.35-2.05,2.77,8.88.16,13.16-3.7,6.07-9.1,11.45-16.16,13.33-.49-.49,1.62-5.33,2.12-6.37,4.12-8.53,7.8-19.31,12.7-27.3,1.09-1.77,5.37-9.07,8.16-6.33Z"/>
  <path class="st0" d="M449,166c2.33-.56,1.65.45,2.29,1.27,8.79,11.18,11.75,28.08,19.72,40.23-8.96-2.44-17.81-8.94-20-18.49l7.5,2.99c2.13-3.84-9.51-3.25-9.51-7.49v-18.5Z"/>
  <path class="st0" d="M374.01,301.99c3.24,3.5,7.27-17.19,9.5-16.99,1.95,4.49,6.29,9.03,4.35,14.38-.52,1.43-2.45,1.38-2.7,1.74-.12.18.91,2.13.44,3.86-.28,1.03-3.41,6.85-4.13,7.02l-14.4-10.6c3.07-6.88,5.95-14.47,11.92-19.4-.91,2.93-.78,6.1-1.44,9.05-.46,2.07-3.94,10.52-3.55,10.94Z"/>
  <path class="st0" d="M515.01,337.99c1.88.2.83-2.03.51-3.01-.67-2.04-3.1-4.81-2.03-6.98,6.52,5.11,8.12,13.5,10.5,20.99l-12.47-8.02c-9.51-8.01-13.57-17.49-13.52-29.97,2.22-.53,2.21,1.29,3.19,2.3,6.89,7.07,11.24,15.2,13.81,24.69Z"/>
  <path class="st0" d="M329.99,247.01l-49.98,16.99c.17-5.46,5.45-6.46,8.49-9,2.6-2.18,10.52-10.69,14.5-8.51,2.37,1.3-2.47,3.96-.51,5.5,5.65-10.92,17.81-9.22,27.5-4.98Z"/>
  <path class="st0" d="M414.99,214.99l-4.72-7.76c-5.15-14.39-8.82-33.31,3.24-45.23l1.48,52.99Z"/>
  <path class="st0" d="M399.01,412c2.54-20.93,2.05-44.65,7.45-65.04.39-1.48.78-3.55,2.53-3.96.8,3.73.28,7.73,0,11.49-.98,12.97-3.19,25.95-3.98,39.02-.47,7.86,3.11,15.87-6,18.49Z"/>
  <path class="st0" d="M540.99,278c-15.65-7.09-27.6-21.24-44.99-24.49,1.33-2.12,2.31-.89,3.75-.85,18.29.49,34.82,7.08,41.23,25.35Z"/>
  <path class="st0" d="M171,312.01c-1.71,2.7-28.31,34.28-29.99,31.99-1.03-8.37,2.52-13.24,10.98-14.01-.5-2.69-6.12.84-6.99,0,3.44-10.2,16.31-15.43,25.99-17.98Z"/>
  <path class="st0" d="M455.86,328.86c-4.66.9-7.03,6.24-11.85,6.13-.36-12.06.97-25.85,11.98-32.99-1.68,8.88-1.04,17.93-.13,26.86Z"/>
  <path class="st0" d="M402.99,218l-16.1-11.39-26.89-12.6c3.66-.33,6.56-1.26,10.38-.91,5.59.51,21.49,8.56,25.67,12.35,1.66,1.51,8.35,10.76,6.94,12.55Z"/>
  <path class="st0" d="M485,238.01c-8.07,7.1-18.35,11.21-26.91,17.58-13.97,10.39-24.03,25.39-32.89,40.11l-12.18,27.3c.54-13.42,7.54-25,14.58-35.91,14.38-22.29,32.7-38.84,57.41-49.08Z"/>
  <path class="st0" d="M240.99,236.99l-10.48-15.01-9.6-8.62,6.1-13.36c8.35,10.32,11.13,24.2,13.98,36.99Z"/>
  <path class="st0" d="M421.99,216.99l-1.98-10.5c-.67-14.53-2.72-28.92-1.99-43.49,1.87,1.36,3.28,5.37,3.93,7.55,4.46,14.87,2.95,31.41.05,46.44Z"/>
  <path class="st0" d="M184.99,254.99c-1.75.51-.48-2.41-1.48-1.99-3.07,1.26,1.01,7.61,1.41,10.58.67,4.97.07,10.43-1.76,15.1-.42,1.06-1,4.06-2.64,3.31l-5.32-24.25,5.31-12.72c.89.02,5.06,8.16,4.49,9.97Z"/>
  <path class="st0" d="M457.99,348c.59,5.34,3.09,12.31,3.09,17.5,0,2.23-1.56,14.23-4.57,13.5-5.06-8.8-9.97-9.68-5.03-20.01,1.61-3.38,4.3-7.93,6.5-10.98Z"/>
  <path class="st0" d="M524,339.01c1.56-.37,2.31.3,3.52.97,3.87,2.14,21.62,15.6,21.45,19.53-.1,2.4-6.74.65-8.19.21-11.84-3.58-13.97-9.53-16.78-20.71Z"/>
  <path class="st0" d="M509.99,427.01l-18.28,5.82-12.71-9.33c10.26-5.54,21.66-2.15,30.99,3.51Z"/>
  <path class="st0" d="M176,423.01c.93,1.27-6.57,8.74-8.55,9.01l-21.45-5.53c8.92-5.74,20.06-7.72,29.99-3.48Z"/>
  <path class="st0" d="M435,384.5l5.99-19.49,3,10.99c-4.93-2.27-6.62,11.76-3,13.51,4.17,2.01,6.93-2.46,6.06,5.03-.68,5.84-3.91,1.65-8.04,1.46-1.16,4.46,2.12,6.96-4.01,6v-17.5Z"/>
  <path class="st0" d="M353.99,337c1.31,16.44-15.68,24.49-29.99,22.98l6.99-2.49c7.91-3.65,13.64-12.46,19.49-18.51,1.04-1.08,1.76-2.34,3.51-1.98Z"/>
  <path class="st0" d="M472.99,200l-18.99-32.98c14.19,1.17,19.15,20.9,18.99,32.98Z"/>
  <path class="st0" d="M456.99,332c.78,10.09-4.04,18.71-10.49,25.98-6.03-10.09,1.41-21,10.49-25.98Z"/>
  <path class="st0" d="M515.99,275.99c-10.42-.95-17.06-9.63-19.99-18.98l13.02,7.47c2.05.87,7.92,10.61,6.97,11.52Z"/>
  <path class="st0" d="M471,335.99c-1.14,1.37-5.27-5.61-7.04-5.45-5.35-5.66-3.74-14.36-3.95-21.53l7.18,12.3c.34,2.16,4.29,14.1,3.81,14.68Z"/>
  <path class="st0" d="M543,281.01c-.77,2.01-5.6,2.02-7.33,1.91-3.14-.2-12.84-2.91-15.4-4.6-2.38-1.58-4.56-7.76-6.26-10.31,2.7-2.1,22.5,16.46,29,13Z"/>
  <path class="st0" d="M391,392c-8.48.68-15.38-4.95-23-7.5,1.13-1.6,2.76-1.51,4.47-1.59s16.08.96,16.88,1.22c2.65.87,1.44,5.56,1.64,7.86Z"/>
  <path class="st0" d="M230,392c1.8-1.73-.37-5.75.94-6.53.63-.37,12.3-1.33,14.56-1.48,3.08-.21.86,6.34,1.5,8.01h-17Z"/>
  <path class="st0" d="M576,358.01c-.89,2.14-4.21,2.67-6.22,3.27-10.34,3.07-16.32,1.63-22.78-7.27,9.7,1.74,19,6.17,29,4Z"/>
  <path class="st0" d="M429.01,388.01c.21.28-1.99,5.16-1.01,6.99-2.21-1.11-12.54-.54-13-1-.35-.35.25-6.53,0-8.01.74-.74,13.54,1.39,14.01,2.02Z"/>
  <path class="st0" d="M204,396.99c-2.43.53-2.55-.42-3.86-1.63-1.71-1.59-11.65-13.87-10.14-15.35.79-.77,3.92.29,5.05,1.44.95.97,9.65,14.99,8.95,15.54Z"/>
  <path class="st0" d="M470.99,310.99l-6.02-8.49c-.2-2.28,5.03-4.78,6.46-4.43,3.54.87-.17,10.55-.43,12.93Z"/>
  <path class="st0" d="M208.99,206.99l-6.31-3.18-10.68-8.81c3.19-1.05,19.24,9.78,16.99,11.99Z"/>
  <path class="st0" d="M263,310c7.42,4.89,7.23,5.45,2.23,12.69-.61.89.17,1.84-2.23,1.31v-14Z"/>
  <path class="st0" d="M331,253.01c-2.8,6.95-12.18,3.53-17.99,4.98-.25-1.36,1.79-1.52,2.75-1.72,5.08-1.07,10.32-1.16,15.24-3.26Z"/>
  <path class="st0" d="M207,389.01c-.66.37.79,10.07-1.99,6.99-.2-.22-2-5.22-1.99-5.51.04-1.1,2.85-1.89,3.97-1.49Z"/>
  <path class="st0" d="M387.99,285l-5.98-8.99c4.17.81,6.86,4.96,5.98,8.99Z"/>
  <path d="M325,281.01c-2.57,4.3-8.41,5.42-12.99,5.99-.51-2.83.67-1.64,2.19-2.25,3.49-1.39,7.26-2.46,10.8-3.74Z"/>
  <path d="M299.99,172.99c-.37.35-8.16-3.09-7.99-3.49,1.52-3.7,9.77,1.82,7.99,3.49Z"/>
  </g>
</svg>